<svg width="200" height="44" viewBox="0 0 200 44" fill="none" xmlns="http://www.w3.org/2000/svg">
<g clip-path="url(#clip0_547_8559)">
<g clip-path="url(#clip1_547_8559)">
<path d="M83.1752 9.20335V34.7958H78.732V14.7128H78.6728L70.7344 34.7958H67.7723L59.6562 14.7128H59.597V34.7958H55.5093V9.20335H61.9074L69.2534 28.1607H69.3718L77.1325 9.20335H83.1752ZM86.8481 11.1583C86.8481 10.4474 87.0851 9.85501 87.6183 9.38108C88.1515 8.90714 88.7439 8.67018 89.4548 8.67018C90.2249 8.67018 90.8766 8.90714 91.3505 9.38108C91.8244 9.85501 92.1207 10.4474 92.1207 11.1583C92.1207 11.8692 91.8837 12.4616 91.3505 12.9356C90.8173 13.4095 90.2249 13.6465 89.4548 13.6465C88.6846 13.6465 88.0922 13.4095 87.6183 12.9356C87.1443 12.4024 86.8481 11.81 86.8481 11.1583ZM91.6467 16.4308V34.7958H87.3221V16.4308H91.6467ZM104.739 31.656C105.391 31.656 106.102 31.5375 106.872 31.182C107.642 30.8858 108.353 30.4711 109.005 29.9972V34.0256C108.294 34.4403 107.523 34.7365 106.635 34.9142C105.746 35.092 104.798 35.2105 103.732 35.2105C101.007 35.2105 98.815 34.3811 97.1562 32.6631C95.4382 30.9451 94.6088 28.7531 94.6088 26.1465C94.6088 23.1844 95.4974 20.7555 97.2154 18.8597C98.9335 16.964 101.362 16.0161 104.561 16.0161C105.391 16.0161 106.22 16.1346 106.99 16.3124C107.82 16.4901 108.471 16.7863 108.945 17.0233V21.1702C108.294 20.6962 107.583 20.2815 106.931 20.0446C106.22 19.8076 105.509 19.6299 104.798 19.6299C103.08 19.6299 101.718 20.1631 100.651 21.2887C99.5851 22.4142 99.1112 23.8953 99.1112 25.791C99.1112 27.6275 99.6443 29.1086 100.651 30.1157C101.659 31.1228 103.021 31.656 104.739 31.656ZM121.268 16.1346C121.623 16.1346 121.919 16.1346 122.215 16.1939C122.512 16.2531 122.749 16.3124 122.926 16.3716V20.7555C122.689 20.5778 122.393 20.4 121.919 20.2815C121.445 20.1631 120.971 20.0446 120.32 20.0446C119.253 20.0446 118.365 20.5185 117.654 21.4071C116.943 22.2958 116.528 23.6583 116.528 25.5541V34.7958H112.204V16.4308H116.528V19.3337H116.587C117.002 18.3266 117.595 17.5564 118.365 16.964C119.194 16.4308 120.142 16.1346 121.268 16.1346ZM123.163 25.9095C123.163 22.8882 124.052 20.4593 125.711 18.682C127.429 16.9048 129.798 16.0161 132.82 16.0161C135.663 16.0161 137.914 16.8455 139.514 18.5635C141.114 20.2815 141.943 22.592 141.943 25.4948C141.943 28.4569 141.054 30.8266 139.396 32.6038C137.678 34.3811 135.367 35.2697 132.405 35.2697C129.561 35.2697 127.31 34.4403 125.651 32.7815C123.993 31.0635 123.163 28.7531 123.163 25.9095ZM127.666 25.7318C127.666 27.6275 128.08 29.1086 128.969 30.1157C129.858 31.1228 131.102 31.656 132.701 31.656C134.242 31.656 135.486 31.182 136.315 30.1157C137.144 29.1086 137.559 27.6275 137.559 25.6133C137.559 23.6583 137.144 22.1773 136.315 21.1109C135.486 20.1038 134.242 19.5706 132.76 19.5706C131.161 19.5706 129.976 20.1038 129.087 21.1702C128.08 22.2958 127.666 23.7768 127.666 25.7318ZM148.4 21.2887C148.4 21.8811 148.578 22.4142 148.993 22.7697C149.407 23.1252 150.237 23.5398 151.599 24.073C153.317 24.7839 154.561 25.5541 155.213 26.3834C155.924 27.2721 156.279 28.2792 156.279 29.5233C156.279 31.2413 155.628 32.6038 154.265 33.6702C152.962 34.7365 151.125 35.2105 148.874 35.2105C148.104 35.2105 147.275 35.092 146.327 34.9142C145.379 34.7365 144.609 34.4996 143.957 34.2033V29.9379C144.727 30.4711 145.616 30.9451 146.505 31.2413C147.393 31.5375 148.223 31.7152 148.993 31.7152C149.941 31.7152 150.711 31.5967 151.125 31.3005C151.599 31.0043 151.836 30.5896 151.836 29.9379C151.836 29.3455 151.599 28.8716 151.125 28.3977C150.651 27.983 149.704 27.509 148.4 26.9759C146.801 26.3242 145.675 25.5541 145.023 24.7247C144.372 23.8953 144.016 22.8289 144.016 21.5256C144.016 19.8669 144.668 18.5043 145.971 17.4379C147.275 16.3716 148.993 15.8384 151.066 15.8384C151.718 15.8384 152.429 15.8977 153.199 16.0754C153.969 16.2531 154.68 16.4308 155.213 16.6086V20.8147C154.621 20.4593 153.969 20.1038 153.199 19.8076C152.429 19.5114 151.659 19.3929 150.948 19.3929C150.118 19.3929 149.467 19.5706 149.052 19.8669C148.637 20.2815 148.4 20.6962 148.4 21.2887ZM158.116 25.9095C158.116 22.8882 159.005 20.4593 160.663 18.682C162.381 16.9048 164.751 16.0161 167.772 16.0161C170.616 16.0161 172.867 16.8455 174.467 18.5635C176.066 20.2815 176.896 22.592 176.896 25.4948C176.896 28.4569 176.007 30.8266 174.348 32.6038C172.63 34.3811 170.32 35.2697 167.358 35.2697C164.514 35.2697 162.263 34.4403 160.604 32.7815C159.005 31.0635 158.116 28.7531 158.116 25.9095ZM162.618 25.7318C162.618 27.6275 163.033 29.1086 163.922 30.1157C164.81 31.1228 166.054 31.656 167.654 31.656C169.194 31.656 170.438 31.182 171.268 30.1157C172.097 29.1086 172.512 27.6275 172.512 25.6133C172.512 23.6583 172.097 22.1773 171.268 21.1109C170.438 20.1038 169.194 19.5706 167.713 19.5706C166.114 19.5706 164.929 20.1038 164.04 21.1702C163.092 22.2958 162.618 23.7768 162.618 25.7318ZM191.291 19.9853H184.834V34.7958H180.45V19.9853H177.369V16.4308H180.45V13.8834C180.45 11.9877 181.102 10.3882 182.346 9.14411C183.59 7.90003 185.189 7.30762 187.144 7.30762C187.678 7.30762 188.151 7.36686 188.566 7.36686C188.981 7.36686 189.336 7.48534 189.633 7.60383V11.3361C189.514 11.2768 189.218 11.1583 188.862 11.0398C188.507 10.9214 188.092 10.8621 187.618 10.8621C186.73 10.8621 186.019 11.1583 185.545 11.6915C185.071 12.2247 184.834 13.1133 184.834 14.1797V16.3716H191.291V12.2247L195.616 10.9214V16.3716H200V19.9261H195.616V28.5161C195.616 29.6417 195.853 30.4119 196.208 30.8858C196.623 31.3597 197.275 31.5967 198.163 31.5967C198.4 31.5967 198.696 31.5375 199.052 31.419C199.407 31.3005 199.704 31.182 199.941 31.0043V34.5588C199.644 34.7365 199.23 34.855 198.578 34.9735C197.926 35.092 197.334 35.1512 196.682 35.1512C194.846 35.1512 193.483 34.6773 192.595 33.7294C191.706 32.7815 191.232 31.3005 191.232 29.3455L191.291 19.9853Z" fill="#737373"/>
<path d="M20.2607 0.672852H0V20.9335H20.2607V0.672852Z" fill="#F25022"/>
<path d="M42.6542 0.672852H22.3936V20.9335H42.6542V0.672852Z" fill="#7FBA00"/>
<path d="M20.2607 23.0664H0V43.3271H20.2607V23.0664Z" fill="#00A4EF"/>
<path d="M42.6542 23.0664H22.3936V43.3271H42.6542V23.0664Z" fill="#FFB900"/>
</g>
</g>
<defs>
<clipPath id="clip0_547_8559">
<rect width="200" height="42.654" fill="white" transform="translate(0 0.672852)"/>
</clipPath>
<clipPath id="clip1_547_8559">
<rect width="200" height="42.654" fill="white" transform="translate(0 0.672852)"/>
</clipPath>
</defs>
</svg>
