<svg width="102" height="82" viewBox="0 0 102 82" fill="none" xmlns="http://www.w3.org/2000/svg">
<g clip-path="url(#clip0_547_8560)">
<path d="M78.8367 27.6211C78.8367 42.6023 66.7623 54.7421 51.8739 54.7421C36.9855 54.7421 24.9111 42.6023 24.9111 27.6211C24.9111 12.6398 36.9855 0.5 51.8739 0.5C66.7623 0.5 78.8367 12.6398 78.8367 27.6211Z" stroke="#006EB7"/>
<path d="M39.6685 16.3682L43.737 40.9202L50.857 30.6902L56.9598 39.8972C58.9941 24.5522 61.0284 16.3682 72.2169 17.3912" stroke="#006EB7" stroke-linecap="round"/>
<path d="M100.474 78.14H102C101.921 78.8753 101.711 79.5334 101.372 80.1141C101.033 80.6949 100.554 81.1558 99.934 81.4968C99.3142 81.8324 98.5407 82.0003 97.6137 82.0003C96.9356 82.0003 96.3184 81.8724 95.7621 81.6167C95.2112 81.3609 94.7371 80.9986 94.3397 80.5297C93.9424 80.0555 93.6352 79.4881 93.418 78.8274C93.206 78.1614 93.1001 77.4207 93.1001 76.6055V75.4467C93.1001 74.6315 93.206 73.8935 93.418 73.2328C93.6352 72.5668 93.9451 71.9967 94.3477 71.5225C94.7556 71.0483 95.2456 70.6833 95.8178 70.4276C96.3899 70.1718 97.0336 70.0439 97.7487 70.0439C98.6228 70.0439 99.3619 70.2091 99.9658 70.5395C100.57 70.8698 101.039 71.328 101.372 71.9141C101.711 72.4949 101.921 73.1689 102 73.9361H100.474C100.4 73.3927 100.262 72.9265 100.061 72.5375C99.8598 72.1432 99.5738 71.8395 99.2029 71.6264C98.8321 71.4133 98.3474 71.3067 97.7487 71.3067C97.2349 71.3067 96.7819 71.4053 96.3899 71.6024C96.0032 71.7996 95.6774 72.0793 95.4125 72.4416C95.1529 72.8039 94.9569 73.2382 94.8245 73.7443C94.692 74.2505 94.6258 74.8126 94.6258 75.4307V76.6055C94.6258 77.1757 94.6841 77.7111 94.8006 78.212C94.9225 78.7128 95.1052 79.1524 95.3489 79.5307C95.5926 79.909 95.9025 80.2074 96.2787 80.4258C96.6548 80.6389 97.0998 80.7455 97.6137 80.7455C98.2653 80.7455 98.7844 80.6416 99.1711 80.4338C99.5579 80.226 99.8492 79.9276 100.045 79.5387C100.247 79.1497 100.39 78.6835 100.474 78.14Z" fill="#006EB7"/>
<path d="M82.4438 70.2041H86.274C87.1428 70.2041 87.8765 70.3373 88.4752 70.6037C89.0791 70.8701 89.5373 71.2644 89.8499 71.7866C90.1677 72.3034 90.3267 72.9401 90.3267 73.6967C90.3267 74.2295 90.2181 74.717 90.0009 75.1593C89.789 75.5962 89.4817 75.9691 89.0791 76.2782C88.6818 76.5819 88.205 76.8083 87.6487 76.9575L87.2196 77.1254H83.6199L83.604 75.8706H86.3217C86.8726 75.8706 87.3309 75.7747 87.6964 75.5829C88.062 75.3857 88.3374 75.122 88.5228 74.7916C88.7083 74.4613 88.801 74.0963 88.801 73.6967C88.801 73.2491 88.7136 72.8575 88.5387 72.5218C88.3639 72.1862 88.0884 71.9278 87.7123 71.7466C87.3415 71.5601 86.862 71.4669 86.274 71.4669H83.9775V81.8408H82.4438V70.2041ZM89.2062 81.8408L86.3932 76.5659L87.9904 76.5579L90.8432 81.7448V81.8408H89.2062Z" fill="#006EB7"/>
<path d="M75.0934 71.2351L71.2632 81.8408H69.6978L74.108 70.2041H75.1172L75.0934 71.2351ZM78.3037 81.8408L74.4656 71.2351L74.4418 70.2041H75.4509L79.8771 81.8408H78.3037ZM78.105 77.533V78.7957H71.6049V77.533H78.105Z" fill="#006EB7"/>
<path d="M65.5897 75.2072V76.462H59.328V75.2072H65.5897ZM59.5664 70.2041V81.8408H58.0327V70.2041H59.5664ZM66.9247 70.2041V81.8408H65.399V70.2041H66.9247Z" fill="#006EB7"/>
<path d="M51.5802 70.2041V81.8408H50.0703V70.2041H51.5802ZM55.2991 70.2041V71.4669H46.3594V70.2041H55.2991Z" fill="#006EB7"/>
<path d="M46.7247 80.586V81.8408H40.9397V80.586H46.7247ZM41.2417 70.2041V81.8408H39.708V70.2041H41.2417Z" fill="#006EB7"/>
<path d="M32.3575 71.2351L28.5274 81.8408H26.9619L31.3722 70.2041H32.3814L32.3575 71.2351ZM35.5679 81.8408L31.7298 71.2351L31.7059 70.2041H32.7151L37.1413 81.8408H35.5679ZM35.3692 77.533V78.7957H28.8691V77.533H35.3692Z" fill="#006EB7"/>
<path d="M25.1585 80.586V81.8408H19.0319V80.586H25.1585ZM19.3418 70.2041V81.8408H17.8081V70.2041H19.3418ZM24.348 75.2072V76.462H19.0319V75.2072H24.348ZM25.0791 70.2041V71.4669H19.0319V70.2041H25.0791Z" fill="#006EB7"/>
<path d="M4.66743 77.5125L7.41466 67.5186H8.7455L7.97551 71.404L5.01915 81.8406H3.69782L4.66743 77.5125ZM1.82515 67.5186L4.01152 77.3158L4.66743 81.8406H3.35561L0 67.5186H1.82515ZM12.3007 77.3059L14.4396 67.5186H16.2742L12.9281 81.8406H11.6163L12.3007 77.3059ZM8.94512 67.5186L11.6163 77.5125L12.5859 81.8406H11.2646L8.41279 71.404L7.6333 67.5186H8.94512Z" fill="#006EB7"/>
</g>
<defs>
<clipPath id="clip0_547_8560">
<rect width="102" height="82" fill="white"/>
</clipPath>
</defs>
</svg>
